<svg viewBox="0 0 24 25" fill="none" class="icon icon-cart" xmlns="http://www.w3.org/2000/svg" style="font-size:18px" class=""><path d="M20.584 8.3001C20.4387 8.12941 20.258 7.99247 20.0544 7.89886C19.8507 7.80525 19.6291 7.75721 19.405 7.7581H16.491C16.4208 6.61932 15.9189 5.5502 15.0876 4.76866C14.2564 3.98712 13.1584 3.552 12.0175 3.552C10.8766 3.552 9.77856 3.98712 8.94733 4.76866C8.11611 5.5502 7.61423 6.61932 7.54399 7.7581H4.59999C4.3752 7.75662 4.1528 7.80438 3.94843 7.89801C3.74406 7.99165 3.56267 8.12889 3.41699 8.3001C3.2771 8.46364 3.17464 8.65577 3.11677 8.86305C3.05891 9.07033 3.04704 9.28775 3.08199 9.5001L4.68199 19.3331C4.78352 19.929 5.09468 20.4691 5.55933 20.8558C6.02397 21.2425 6.61153 21.4504 7.21599 21.4421H16.78C17.3843 21.4505 17.9717 21.2427 18.4364 20.8562C18.901 20.4697 19.2122 19.9299 19.314 19.3341L20.918 9.5001C20.9531 9.28782 20.9415 9.07043 20.8838 8.86314C20.8261 8.65585 20.7238 8.46369 20.584 8.3001ZM12.018 4.5621C12.8919 4.56563 13.7328 4.89594 14.3755 5.4881C15.0182 6.08026 15.4161 6.89142 15.491 7.7621H8.54399C8.61891 6.89125 9.01695 6.07995 9.65984 5.48776C10.3027 4.89558 11.1439 4.56538 12.018 4.5621ZM18.33 19.1701C18.2651 19.5312 18.0736 19.8573 17.7899 20.0899C17.5062 20.3225 17.1488 20.4463 16.782 20.4391H7.21799C6.8512 20.4467 6.49377 20.323 6.21012 20.0903C5.92648 19.8576 5.73528 19.5313 5.67099 19.1701L4.07099 9.3371C4.05996 9.26847 4.06409 9.19827 4.08309 9.13141C4.1021 9.06455 4.13551 9.00266 4.18099 8.9501C4.23289 8.89003 4.29727 8.842 4.36963 8.80936C4.442 8.77672 4.52061 8.76025 4.59999 8.7611H7.51299V9.7611C7.51299 9.89371 7.56567 10.0209 7.65944 10.1147C7.75321 10.2084 7.88038 10.2611 8.01299 10.2611C8.1456 10.2611 8.27278 10.2084 8.36655 10.1147C8.46031 10.0209 8.51299 9.89371 8.51299 9.7611V8.7611H15.522V9.7611C15.522 9.89371 15.5747 10.0209 15.6684 10.1147C15.7622 10.2084 15.8894 10.2611 16.022 10.2611C16.1546 10.2611 16.2818 10.2084 16.3755 10.1147C16.4693 10.0209 16.522 9.89371 16.522 9.7611V8.7611H19.405C19.4839 8.76035 19.5621 8.77688 19.6339 8.80953C19.7058 8.84218 19.7696 8.89016 19.821 8.9501C19.8668 9.00225 19.9004 9.06395 19.9195 9.13071C19.9385 9.19747 19.9424 9.26763 19.931 9.3361L18.33 19.1701Z" fill="currentcolor"></path></svg>